<?xml version="1.0" encoding="UTF-8"?><svg id="Layer_2" xmlns="http://www.w3.org/2000/svg" viewBox="0 0 82.54 71.27"><defs><style>.cls-1{fill:#c2c1c0;}</style></defs><g id="Layer_1-2"><g id="Ultralight-S"><path class="cls-1" d="m41.27,66.77c13.99,0,25.5-11.46,25.5-25.5s-10.89-24.88-24.42-25.45v26.7c0,.57-.47,1.09-1.09,1.08-.59,0-1.09-.51-1.09-1.09V15.82c-13.52.57-24.37,11.85-24.37,25.45s11.47,25.5,25.46,25.5Z"/><path class="cls-1" d="m79.4,44.35c1.75,0,3.13-1.39,3.13-3.13s-1.39-3.13-3.13-3.13-3.13,1.44-3.13,3.13,1.43,3.13,3.13,3.13Zm-76.27,0c1.7,0,3.13-1.39,3.13-3.13s-1.39-3.13-3.13-3.13-3.13,1.44-3.13,3.13,1.44,3.13,3.13,3.13Zm11.2-26.82c1.7,0,3.13-1.43,3.13-3.13s-1.43-3.13-3.13-3.13-3.17,1.39-3.17,3.13,1.43,3.13,3.17,3.13Zm26.93-11.27c1.75,0,3.13-1.39,3.13-3.13s-1.39-3.13-3.13-3.13-3.13,1.43-3.13,3.13,1.43,3.13,3.13,3.13ZM14.34,71.26c1.7,0,3.13-1.43,3.13-3.13s-1.43-3.13-3.13-3.13-3.17,1.43-3.17,3.13,1.43,3.13,3.17,3.13Zm53.9-53.74c1.7,0,3.13-1.43,3.13-3.13s-1.43-3.13-3.13-3.13-3.13,1.39-3.13,3.13,1.39,3.13,3.13,3.13Zm0,53.74c1.7,0,3.13-1.43,3.13-3.13s-1.43-3.13-3.13-3.13-3.13,1.43-3.13,3.13,1.39,3.13,3.13,3.13Z"/></g></g></svg>