<?xml version="1.0" encoding="UTF-8"?><svg id="Layer_2" xmlns="http://www.w3.org/2000/svg" viewBox="0 0 80.51 75.12"><defs><style>.cls-1{fill:#c2c1c0;}</style></defs><g id="Layer_1-2"><g id="Ultralight-S"><path class="cls-1" d="m76.62,74.41c.94.99,2.34.9,3.18,0,.89-.95.98-2.19,0-3.23l-37.09-37.23c-.94-.94-2.34-.9-3.22,0-.9.9-.89,2.28,0,3.18l37.14,37.28Zm-24.1-26.22l-11.77-11.86c-.5-.51-.56-.88-.15-1.34.4-.41.83-.31,1.34.2l11.77,11.77-1.19,1.23Z"/><path class="cls-1" d="m27.13,70.84c.29,0,.46-.17.51-.46,1.72-10.25,1.53-9.96,12.02-12.03.29-.06.51-.23.51-.56s-.22-.46-.5-.51c-10.49-2.09-10.32-1.77-12.04-12.03-.05-.33-.23-.51-.51-.51s-.5.18-.56.5c-1.67,10.26-1.53,9.93-12.03,12.03-.24.05-.46.18-.46.51s.22.5.46.56c10.5,2.09,10.35,1.78,12.03,12.03.05.28.28.46.56.46ZM8.96,38.74c.18,0,.3-.12.35-.34,1.5-6.02,1.68-6.91,8.23-8.23.27-.05.39-.17.39-.39s-.12-.34-.39-.39c-6.55-1.32-6.73-2.21-8.23-8.23-.05-.22-.17-.34-.35-.34s-.3.12-.35.34c-1.5,6.02-1.63,6.91-8.23,8.23-.26.05-.39.17-.39.39s.12.34.39.39c6.6,1.32,6.73,2.21,8.23,8.23.05.22.17.34.35.34Zm49.01-10.4c.18,0,.25-.12.3-.3,1.54-6.07,1.73-6.96,8.27-8.27.27-.05.39-.17.39-.39,0-.18-.12-.3-.39-.35-6.55-1.32-6.73-2.25-8.27-8.27-.05-.22-.12-.34-.3-.34s-.3.12-.35.34c-1.5,6.02-1.64,6.96-8.23,8.27-.27.05-.39.17-.39.35,0,.22.12.34.39.39,6.59,1.32,6.73,2.21,8.23,8.27.05.17.17.3.35.3Zm-29.49-12.09c.17,0,.24-.11.29-.33,1.36-5.43,1.54-6.3,7.48-7.48.26-.05.33-.16.33-.29,0-.17-.07-.29-.33-.34-5.95-1.18-6.12-2-7.48-7.48-.05-.21-.11-.33-.29-.33s-.24.11-.29.33c-1.36,5.48-1.49,6.3-7.48,7.48-.22.05-.33.16-.33.34,0,.08.11.24.33.29,5.99,1.18,6.12,2.05,7.48,7.48.05.21.12.33.29.33Z"/></g></g></svg>