<?xml version="1.0" encoding="UTF-8"?><svg id="Layer_2" xmlns="http://www.w3.org/2000/svg" viewBox="0 0 82.77 76.35"><defs><style>.cls-1{fill:#c2c1c0;}</style></defs><g id="Layer_1-2"><g id="Ultralight-S"><path class="cls-1" d="m9.23,69.78c0,4.11,2.46,6.57,6.58,6.57h51.32c4.12,0,6.58-2.45,6.58-6.57v-37.07L43.93,7.68c-1.78-1.49-3.26-1.44-4.99,0l-29.7,24.93v37.16ZM0,33.99c0,.54.46,1.02,1.13,1.02.36,0,.57-.14.85-.37L39.69,2.95c1.1-.96,2.22-1.13,3.58,0l37.52,31.69c.29.23.5.37.86.37.69,0,1.12-.45,1.12-1.01,0-.46-.16-.74-.59-1.07L44.75,1.36c-2.07-1.81-4.38-1.81-6.55,0L.6,32.93c-.43.33-.6.63-.6,1.06Zm50.82,40.14h-18.88v-26.77c0-1.31.86-2.17,2.13-2.17h14.63c1.27,0,2.12.85,2.12,2.17v26.77Zm17.26-51.74l5.64,4.75V9.73c0-.86-.63-1.44-1.48-1.44h-2.71c-.81,0-1.44.58-1.44,1.44v12.66Z"/></g></g></svg>