<?xml version="1.0" encoding="UTF-8"?><svg id="Layer_2" xmlns="http://www.w3.org/2000/svg" viewBox="0 0 93.8 20.08"><defs><style>.cls-1{letter-spacing:-.01em;}.cls-2{font-size:18.28px;}.cls-2,.cls-3{font-family:AlbraDisplay-Light, 'Albra Display';font-weight:300;}.cls-3{font-size:8.08px;letter-spacing:-.01em;}.cls-4{letter-spacing:-.02em;}.cls-5{letter-spacing:-.01em;}.cls-6{letter-spacing:0em;}.cls-7{letter-spacing:-.03em;}</style></defs><g id="Layer_1-2"><text class="cls-2" transform="translate(15.54 15.68)"><tspan class="cls-1" x="0" y="0">spa</tspan><tspan class="cls-7" x="25.52" y="0">r</tspan><tspan class="cls-6" x="31.96" y="0">ki</tspan><tspan class="cls-4" x="45.56" y="0">t</tspan><tspan class="cls-1" x="50.68" y="0">e</tspan><tspan class="cls-5" x="59.07" y="0">c</tspan><tspan class="cls-1" x="66.97" y="0">t</tspan></text><text class="cls-3" transform="translate(89.28 11.01)"><tspan x="0" y="0">®</tspan></text><path d="m8.44,12.34c1.09-1.09,5.77-1.33,5.77-1.33,0,0-4.85-.41-5.77-1.33-.92-.92-1.33-5.77-1.33-5.77,0,0-.33,4.77-1.33,5.77-1,1-5.77,1.33-5.77,1.33,0,0,4.77.33,5.77,1.33,1,1,1.33,5.77,1.33,5.77,0,0,.25-4.69,1.33-5.77Z"/></g></svg>